<?xml version="1.0" standalone="no"?>
<!DOCTYPE svg PUBLIC "-//W3C//DTD SVG 20010904//EN"
 "http://www.w3.org/TR/2001/REC-SVG-20010904/DTD/svg10.dtd">
<svg version="1.0" xmlns="http://www.w3.org/2000/svg"
 width="611.000000pt" height="611.000000pt" viewBox="0 0 611.000000 611.000000"
 preserveAspectRatio="xMidYMid meet">
<metadata>
Created by potrace 1.14, written by Peter Selinger 2001-2017
</metadata>
<g transform="translate(0.000000,611.000000) scale(0.100000,-0.100000)"
fill="#000000" stroke="none">
<path d="M2709 6096 c-52 -27 -68 -41 -89 -78 -47 -85 -30 -188 45 -257 24
-22 54 -41 65 -41 20 0 20 -3 19 -807 l0 -808 -70 -45 c-165 -105 -252 -231
-284 -410 -15 -82 -16 -704 -1 -770 13 -59 46 -145 56 -148 6 -2 8 -7 5 -12
-9 -14 75 -131 140 -194 55 -54 99 -82 220 -137 40 -19 192 -44 255 -43 77 2
142 11 179 26 14 6 32 12 40 14 51 10 189 100 251 164 58 59 140 180 122 180
-4 0 -2 4 4 8 14 9 42 89 55 157 10 50 13 626 4 700 -9 69 -33 169 -51 205
-46 93 -127 183 -234 259 l-66 46 1 799 0 799 40 23 c56 31 102 101 110 167 9
74 -21 144 -78 184 l-40 28 -337 2 c-254 1 -343 -1 -361 -11z"/>
<path d="M3952 5378 c-17 -35 -40 -88 -52 -118 -12 -30 -25 -62 -29 -70 -12
-24 -68 -218 -85 -295 -26 -118 -42 -264 -29 -267 35 -6 1799 -3 1804 3 7 12
-17 209 -36 294 -31 135 -95 317 -160 458 l-26 57 -679 0 -679 0 -29 -62z"/>
<path d="M558 5370 c-90 -27 -151 -105 -150 -193 0 -90 45 -161 126 -198 134
-61 282 33 291 184 2 28 -2 62 -8 76 -44 104 -158 162 -259 131z"/>
<path d="M1777 5174 c-1 -2 -18 -6 -37 -9 -38 -6 -99 -24 -115 -34 -5 -3 -15
-6 -21 -7 -10 -2 -81 -45 -112 -69 -40 -30 -122 -114 -122 -123 0 -7 -4 -12
-10 -12 -5 0 -10 -4 -10 -10 0 -5 -7 -18 -15 -27 -8 -10 -15 -21 -15 -25 0 -5
-9 -23 -20 -42 -33 -59 -62 -182 -62 -264 0 -38 -1 -39 -84 -46 -136 -13 -255
-68 -350 -161 -49 -48 -116 -145 -120 -174 0 -3 -6 -18 -12 -32 -14 -35 -25
-93 -27 -149 -1 -40 -27 -105 -73 -185 -18 -32 -80 -195 -118 -312 -30 -94
-97 -387 -93 -410 1 -4 0 -10 -1 -13 -19 -47 -28 -403 -16 -575 19 -246 100
-598 176 -760 5 -11 23 -54 41 -95 55 -131 199 -383 228 -400 9 -5 12 -10 8
-10 -14 0 105 -170 207 -295 122 -148 461 -455 503 -455 6 0 13 -4 15 -9 10
-28 391 -229 561 -295 60 -24 171 -61 216 -72 114 -28 268 -61 318 -69 93 -13
112 -15 211 -21 l102 -6 0 1046 c-1 1176 7 1059 -80 1069 -89 11 -242 80 -340
154 -206 156 -333 366 -366 603 -4 30 -8 251 -10 490 -1 239 -3 445 -3 456 -1
26 -54 56 -146 85 -33 11 -66 22 -74 24 -21 8 -2 22 39 29 151 24 258 77 360
176 35 34 111 136 114 152 1 7 8 23 15 36 40 73 65 249 47 337 -17 88 -86 245
-107 245 -5 0 -9 6 -9 13 -1 15 -56 77 -70 77 -5 0 -10 6 -10 13 0 14 -126
100 -147 100 -7 0 -13 4 -13 9 0 5 -4 6 -10 3 -5 -3 -10 -2 -10 2 0 8 -72 33
-115 40 -27 4 -215 10 -218 7z"/>
<path d="M3766 4345 c2 -16 5 -41 8 -55 4 -14 9 -38 11 -54 3 -16 10 -37 15
-46 5 -10 6 -20 3 -24 -3 -3 -1 -6 6 -6 7 0 11 -6 8 -14 -3 -8 1 -20 8 -26 8
-7 14 -15 13 -18 -3 -12 46 -102 55 -102 4 0 6 -4 3 -9 -3 -5 5 -20 18 -34 13
-14 22 -27 20 -30 -2 -2 14 -23 36 -46 22 -23 40 -47 40 -52 0 -5 8 -13 18
-16 9 -4 33 -23 52 -42 38 -39 99 -82 143 -102 15 -7 27 -17 27 -22 0 -6 3 -8
6 -4 4 3 28 -5 54 -18 26 -13 59 -26 74 -29 14 -2 30 -7 36 -11 33 -20 321
-31 407 -15 75 14 222 63 262 87 99 61 117 74 184 138 89 84 172 207 215 315
24 61 59 189 64 235 l3 30 -896 0 -896 0 3 -30z"/>
<path d="M5493 3637 c-56 -76 -133 -144 -211 -187 -15 -8 -80 -44 -144 -79
-182 -99 -273 -193 -323 -334 -25 -71 -28 -103 -29 -316 l-1 -154 215 -97
c378 -169 570 -260 570 -272 0 -4 -172 -7 -383 -6 -210 1 -388 -1 -395 -6 -11
-7 -13 -147 -10 -777 2 -423 6 -769 10 -769 10 0 284 274 333 333 22 26 53 62
68 80 69 79 234 342 301 481 83 168 165 400 201 566 35 160 49 239 60 340 4
30 8 69 10 85 6 41 6 339 0 395 -10 116 -21 191 -39 290 -19 103 -74 310 -85
325 -5 6 -11 23 -15 38 -8 35 -59 147 -66 147 -3 0 -33 -37 -67 -83z"/>
<path d="M3974 3217 c0 -308 -3 -347 -39 -470 -73 -248 -243 -443 -489 -557
-81 -38 -170 -65 -236 -73 l-35 -3 -1 -1053 0 -1053 108 6 c60 4 125 8 144 11
163 23 174 25 278 51 233 59 482 164 739 312 81 47 97 60 98 81 0 14 1 406 1
870 1 573 -3 845 -10 850 -5 3 -168 5 -361 4 -297 -1 -351 1 -351 13 0 13 241
138 455 236 44 20 123 56 175 81 l95 44 -1 161 c-2 198 -8 244 -38 326 -30 78
-47 107 -106 170 -55 59 -108 94 -276 181 -71 37 -134 71 -139 76 -8 5 -11
-76 -11 -264z"/>
</g>
</svg>
